<svg id="Layer_1" enable-background="new 0 0 512 512" height="512" viewBox="0 0 512 512" width="512" xmlns="http://www.w3.org/2000/svg"><g><g><g><g><g><g id="XMLID_624_"><g id="XMLID_625_"><g id="XMLID_626_"><g id="XMLID_627_"><g id="XMLID_635_"><g id="XMLID_636_"><g id="XMLID_637_"><g id="XMLID_638_"><g id="XMLID_639_"><g id="XMLID_640_"><g id="XMLID_663_"><g id="XMLID_664_"><g id="XMLID_963_"><g id="XMLID_964_"><g><path d="m512 256c0 59.04-19.99 113.41-53.56 156.71-46.83 60.41-120.1 58.538-202.44 58.538s-155.61 1.872-202.44-58.538c-33.57-43.3-53.56-97.67-53.56-156.71 0-141.38 114.62-256 256-256s256 114.62 256 256z" fill="#63544f"/></g></g></g></g></g></g></g></g></g></g></g></g></g></g></g></g></g></g></g><path d="m256 471.248c82.34 0 155.61 1.872 202.44-58.538 33.57-43.3 53.56-97.67 53.56-156.71 0-37.282-7.978-72.699-22.307-104.648l-83.858-83.857-266.471 117.541 9.195 9.107-.645 50.13 23.055 23.022c0 14.865 5.674 50.074 12.523 62.751l-129.932 82.664c46.83 60.41 120.1 58.538 202.44 58.538z" fill="#4f4540"/><g><path d="m204.289 301.101h103.419v83.143h-103.419z" fill="#ffbb7d"/><path d="m255.999 301.103h51.709v83.143h-51.709z" fill="#efa36a"/><path d="m458.44 399.75v12.96c-41.7 53.79-104.36 90.51-175.72 97.91-8.78.91-17.7 1.38-26.72 1.38s-17.94-.47-26.72-1.38c-71.36-7.4-134.02-44.12-175.72-97.91v-12.96c0-41.39 34.27-74.94 76.54-74.94h251.8c42.27 0 76.54 33.55 76.54 74.94z" fill="#ff405c"/><path d="m458.44 399.75v12.96c-41.7 53.79-104.36 90.51-175.72 97.91-8.78.91-17.7 1.38-26.72 1.38v-187.19h125.9c42.27 0 76.54 33.55 76.54 74.94z" fill="#c1126b"/><path d="m295.812 432.366h-81.925c-49.814 0-90.571-40.757-90.571-90.571v-16.551c0-13.278 10.864-24.141 24.141-24.141h214.784c13.278 0 24.141 10.864 24.141 24.141v16.551c.002 49.814-40.755 90.571-90.57 90.571z" fill="#70be6b"/><path d="m386.38 325.24v16.56c0 49.81-40.75 90.57-90.57 90.57h-39.81v-131.27h106.24c13.28 0 24.14 10.87 24.14 24.14z" fill="#00a78e"/><path d="m354.311 177.779c-4.153-60.792-55.155-83.258-98.311-83.258s-94.158 22.467-98.311 83.258c-11.16 2.081-19.087 16.194-17.84 27.605l1.913 25.968c1.309 11.983 12.234 20.731 24.273 19.429l2.077-.217c24.662 63.849 63.338 70.506 87.887 74.244 24.55-3.738 63.226-10.395 87.888-74.244l2.076.217c12.04 1.302 22.964-7.446 24.273-19.429l1.913-25.968c1.249-11.411-6.678-25.524-17.838-27.605z" fill="#ffd4a6"/><path d="m372.151 205.384-1.913 25.968c-1.309 11.983-12.234 20.731-24.273 19.429l-2.076-.217c-8.429 21.796-18.484 36.935-29.05 47.556-20.376 20.494-42.665 24.222-58.837 26.688v-230.287c43.156 0 94.158 22.467 98.311 83.258 11.158 2.081 19.085 16.194 17.838 27.605z" fill="#f4b37d"/><path d="m156.823 158.682s4.808-179.785 224.456-87.238c0 0-30.918 42.868-24.339 87.238z" fill="#ff405c"/><path d="m356.05 148.13c.08 3.49.37 7.01.89 10.55h-100.94v-112.92c31.04-3.24 71.79 3.14 125.28 25.68 0 0-26.19 36.31-25.23 76.69z" fill="#c1126b"/><path d="m361.197 148.126h-210.394c-8.925 0-16.227 7.302-16.227 16.226v9.203c0 8.924 7.302 16.227 16.227 16.227h12.604v103.515c0 20.347 21.521 73.428 92.593 92.891 71.072-19.463 92.593-72.543 92.593-92.891 0-15.655 0-76.349 0-103.515h12.604c8.925 0 16.227-7.302 16.227-16.227v-9.203c0-8.924-7.302-16.226-16.227-16.226zm-47.991 93.33h-114.412l-9.149-51.674h132.71z" fill="#fff"/><g fill="#ecf9fb"><path d="m361.2 148.13h-105.2v41.65h66.36l-9.15 51.68h-57.21v144.73c9.83-2.69 18.71-6.03 26.72-9.83 29.09-13.82 46.66-33.81 56.24-51.55 6.85-12.68 9.63-24.2 9.63-31.51v-103.52h12.61c8.92 0 16.22-7.3 16.22-16.22v-9.21c0-8.92-7.3-16.22-16.22-16.22z"/><circle cx="387.125" cy="81.177" r="23.182"/></g></g></g></svg>